<svg xmlns="http://www.w3.org/2000/svg" viewBox="0 0 80 80" fill="none" shape-rendering="auto" aria-hidden="true"><metadata xmlns:rdf="http://www.w3.org/1999/02/22-rdf-syntax-ns#" xmlns:xsi="http://www.w3.org/2001/XMLSchema-instance" xmlns:dc="http://purl.org/dc/elements/1.1/" xmlns:dcterms="http://purl.org/dc/terms/"><rdf:RDF><rdf:Description><dc:title>Dylan! The Avatar Generator</dc:title><dc:creator>Natalia Spivak</dc:creator><dc:source xsi:type="dcterms:URI">https://www.figma.com/community/file/1356575240759683500</dc:source><dcterms:license xsi:type="dcterms:URI">https://creativecommons.org/licenses/by/4.0/</dcterms:license><dc:rights>Remix of “Dylan! The Avatar Generator” (https://www.figma.com/community/file/1356575240759683500) by “Natalia Spivak”, licensed under “CC BY 4.0” (https://creativecommons.org/licenses/by/4.0/)</dc:rights></rdf:Description></rdf:RDF></metadata><defs><g id="facialHair-default-9427b6b9"><path d="M5 .13a24 24 0 0 0-4.7 3c-.42.33-.38 1.07 0 1.41.42.4.97.35 1.4 0l.25-.2.13-.1q-.12.09 0 0A17 17 0 0 1 3.7 3.12q1.11-.7 2.3-1.27c.47-.23.64-.94.36-1.37C6.06 0 5.5-.12 5 .12zm1.47 6.02L3.93 9.96c-.3.44-.1 1.13.36 1.37.5.27 1.06.11 1.37-.36l2.54-3.8c.29-.45.1-1.14-.36-1.38a1 1 0 0 0-1.37.36m5.8 6.2-1.69 3.96c-.1.26-.18.5-.1.77.06.23.24.48.46.6.43.23 1.15.15 1.37-.36l1.74-3.95c.1-.26.18-.49.1-.77a1 1 0 0 0-.46-.6c-.43-.23-1.15-.15-1.37.36m6.21 3.2a63 63 0 0 1-.44 5.5c-.07.51.51 1.01 1 1 .6-.04.93-.45 1-1q.34-2.75.45-5.5a1 1 0 0 0-1-1 1 1 0 0 0-1 1m7.2.97.54 5.93c.05.52.43 1.03 1 1 .5-.02 1.05-.44 1-1l-.54-5.93c-.05-.52-.43-1.03-1-1-.5.02-1.05.44-1 1m7.36-1.7a12 12 0 0 0 2.51 5.26c.33.41 1.08.37 1.4 0 .4-.43.36-.98 0-1.4l-.1-.14q.1.15 0 0l-.2-.26-.34-.54a11 11 0 0 1-.74-1.44c.1.24-.04-.1-.05-.14l-.22-.6q-.2-.63-.32-1.27c-.1-.5-.74-.86-1.23-.7-.56.18-.81.68-.71 1.23m5.9-3.58 2.54 4.52c.26.46.92.65 1.37.36s.63-.88.36-1.37l-2.54-4.52c-.26-.46-.92-.65-1.37-.36s-.63.88-.36 1.37m3.1-6.35a9 9 0 0 0 3.74 3.62c.47.24 1.1.14 1.37-.36.24-.46.14-1.1-.36-1.37q-.53-.27-1-.6l-.23-.17c.27.2 0 0-.07-.06l-.44-.39-.4-.4-.18-.23c-.05-.07-.24-.34-.06-.07q-.34-.48-.64-.99c-.25-.46-.92-.65-1.37-.36s-.63.88-.36 1.37z" fill="black"/></g><g id="mood-angry-9427b6b9"><path d="M5.1 22.7c1.24-2.82 4.75-4.07 7.63-4.27 3.08-.21 6.09.67 8.56 2.52 1.03.77 2.03-.96 1.01-1.73a14.5 14.5 0 0 0-10.11-2.75c-3.4.36-7.4 1.9-8.87 5.21-.5 1.17 1.21 2.2 1.73 1.01m15.8-19.36q.16-.33.37-.6l-.16.2q.25-.34.58-.59l-.2.16q.33-.25.7-.4l-.23.1q.37-.16.75-.2l-.27.02.15-.02q.4-.02.71-.3a1 1 0 0 0 0-1.4c-.19-.18-.45-.33-.7-.3a4.1 4.1 0 0 0-3.43 2.31c-.1.25-.18.5-.1.77.06.23.24.48.46.6s.5.18.76.1c.23-.08.5-.23.6-.46zM3.84 2.16q.1 0 .18.02l-.27-.04q.56.08 1.1.3l-.25-.1q.53.22.98.57l-.2-.11q.35.27.63.59a1 1 0 0 0 .7.3c.25-.01.55-.12.72-.3.4-.42.37-1 0-1.41Q6.77 1.19 5.9.73a6 6 0 0 0-2.07-.6c-.24-.01-.54.14-.7.3-.18.17-.3.46-.3.71.01.25.1.53.3.71.2.19.42.26.7.3z" fill="black"/></g><g id="hair-spiky-9427b6b9"><path d="m17.55 30.23 2.52-10.73 8.65 2.8 1.51-4.54 9.33 4.35 2.12-4.6 6.96 5.1 5.55-2.33L55.41 31l7.74-8.28-3.9-2.32.83-7.38-3.27.21-1-6.96-4.1 2.53-3.84-5.19-3.64 2.1-9.1-4.3-1 3.6-7.18-1.5v3.8h-9.21l1.64 4.22-8.4 3.16 4.5 2.95-4.5 4.22z" fill="#000000"/></g><clipPath id="clip-9427b6b9"><rect width="80" height="80" rx="0" ry="0"/></clipPath></defs><g clip-path="url(#clip-9427b6b9)"><rect width="80" height="80" fill="#619eff"/><path d="M19.07 30.47s1.57-20.23 21.59-20.23S62.3 30.55 62.3 30.55s9.43-.8 9.43 7.6c0 8.42-9.28 7.13-9.28 7.13S60.9 67.15 42.03 67.15c-21.11 0-23.4-20.8-23.4-20.8s-9 .72-9.93-6.25c-1.08-8.2 10.37-9.64 10.37-9.64" fill="#c26450"/><path d="m64.3 39.49.46-.41.1-.09c.12-.1-.13.1-.02.02l.24-.17q.5-.35 1.06-.62l.26-.12.05-.02.05-.02.58-.21q.6-.18 1.2-.28c.52-.08.85-.76.7-1.23-.18-.56-.67-.8-1.23-.7a9.3 9.3 0 0 0-4.87 2.43c-.38.36-.4 1.06 0 1.4.4.36 1 .4 1.4 0zm-51.8-1.16.14.01c-.27-.02-.11-.01-.04 0l.3.05.52.14.28.09.12.05c.02 0 .22.09.06.02-.14-.1 0-.04.03-.03l.15.06.26.13.47.3.27.22q.47.38.83.83c.33.4 1.07.37 1.41 0 .4-.43.36-.98 0-1.4a7.3 7.3 0 0 0-4.84-2.53c-.52-.06-1.02.5-1 1 .03.59.44.94 1 1m18.3-1.9v4.54c0 .52.46 1.02 1 1s1-.44 1-1V36.4c0-.52-.46-1.02-1-1s-1 .44-1 1M49.2 36l-.15 4.81a1 1 0 0 0 1 1c.56-.02.98-.44 1-1l.15-4.8a1 1 0 0 0-1-1 1 1 0 0 0-1 1" fill="black"/><use transform="translate(15.71 47)" href="#facialHair-default-9427b6b9"/><use transform="translate(27.82 26.75)" href="#mood-angry-9427b6b9"/><use transform="translate(3.78 2.95)" href="#hair-spiky-9427b6b9"/></g></svg>